# xmcd
#
# Track frame offsets: 
#        150
#        12748
#        40781
#        59254
#        82350
#        98854
#        114971
#        128176
#        143680
#        161119
#
# Disc length: 2397 seconds
#
# Revision: 1
# Processed by: cddbd v1.4PL0 Copyright (c) Steve Scherf et al.
# Submitted via: ExactAudioCopy v0.95a3
#
DISCID=88095b0a
DTITLE=The Gino Marinello Orchestra - The Music of The Eagles
DYEAR=2000
DGENRE=POP
TTITLE0=Tequila Sunrise
TTITLE1=Hotel California
TTITLE2=Lyin' Eyes
TTITLE3=New Kid in Town
TTITLE4=Desperado
TTITLE5=Take It Easy
TTITLE6=Peaceful Easy Feelin'
TTITLE7=Best of My Love
TTITLE8=One of These Nights
TTITLE9=I Can't Tell You Why
EXTD=
EXTT0=
EXTT1=
EXTT2=
EXTT3=
EXTT4=
EXTT5=
EXTT6=
EXTT7=
EXTT8=
EXTT9=
PLAYORDER=
